<?xml version="1.0" standalone="no"?>
<!DOCTYPE svg PUBLIC "-//W3C//DTD SVG 20010904//EN"
 "http://www.w3.org/TR/2001/REC-SVG-20010904/DTD/svg10.dtd">
<svg version="1.0" xmlns="http://www.w3.org/2000/svg"
 width="449.000000pt" height="174.000000pt" viewBox="0 0 449.000000 174.000000"
 preserveAspectRatio="xMidYMid meet">

<g transform="translate(0.000000,174.000000) scale(0.100000,-0.100000)"
fill="#ffa201" stroke="none">
<path d="M210 1275 l0 -385 145 0 145 0 0 130 c0 72 3 130 8 130 4 0 72 -65
152 -145 l145 -145 102 102 103 103 -152 152 -153 153 138 0 137 0 0 145 0
145 -385 0 -385 0 0 -385z"/>
<path d="M1080 1357 l0 -302 83 -83 82 -82 63 0 62 0 0 385 0 385 -145 0 -145
0 0 -303z"/>
<path d="M1470 1420 l0 -239 152 -3 152 -3 -160 -140 -159 -140 285 -3 285 -2
76 77 c59 61 76 84 73 103 -1 14 -3 87 -3 163 l-1 137 -150 0 -151 0 161 140
c88 77 160 143 160 145 0 3 -162 5 -360 5 l-360 0 0 -240z"/>
<path d="M2270 1358 l0 -303 83 -83 82 -82 68 0 67 0 -2 383 -3 382 -147 3
-148 3 0 -303z"/>
<path d="M2670 1275 l0 -385 150 0 150 0 0 117 0 118 118 -118 117 -117 123 0
122 0 -2 383 -3 382 -145 0 -145 0 -5 -118 -5 -117 -120 120 -120 120 -117 0
-118 0 0 -385z"/>
<path d="M3540 1352 l0 -307 78 -78 77 -77 308 0 307 0 0 215 0 215 -175 0
c-109 0 -175 -4 -176 -10 0 -5 -1 -23 -1 -40 0 -85 -3 -80 57 -80 l55 0 0 -60
0 -60 -120 0 -120 0 0 205 0 205 240 0 240 0 0 90 0 90 -385 0 -385 0 0 -308z"/>
<path d="M210 415 l0 -385 145 0 145 0 0 95 0 95 240 0 240 0 0 53 c0 48 -4
57 -35 87 l-35 34 32 33 32 33 -237 0 -237 0 0 50 0 50 237 0 237 0 -32 33
-32 33 35 34 c31 30 35 39 35 87 l0 53 -385 0 -385 0 0 -385z"/>
<path d="M1080 698 l0 -102 40 -37 c22 -21 40 -41 40 -46 0 -5 -18 -27 -40
-48 l-40 -39 0 -198 0 -198 378 2 377 3 3 142 3 143 -233 2 -233 3 -3 238 -2
237 -145 0 -145 0 0 -102z"/>
<path d="M1940 415 l0 -385 750 0 750 0 0 385 0 385 -750 0 -750 0 0 -385z
m420 -1 c0 -184 -3 -235 -12 -232 -10 4 -14 62 -16 236 -2 202 0 232 13 232
13 0 15 -32 15 -236z m208 4 c-2 -149 -7 -232 -13 -231 -6 2 -11 90 -13 233
-2 201 0 230 13 230 13 0 15 -29 13 -232z m262 -3 c0 -150 -4 -235 -10 -235
-6 0 -10 85 -10 235 0 150 4 235 10 235 6 0 10 -85 10 -235z m210 0 c0 -150
-4 -235 -10 -235 -6 0 -10 85 -10 235 0 150 4 235 10 235 6 0 10 -85 10 -235z
m-520 -1 c0 -130 -2 -154 -15 -154 -13 0 -15 24 -15 153 0 85 3 157 6 160 19
18 24 -18 24 -159z m-210 1 c0 -131 -2 -155 -15 -155 -13 0 -15 24 -15 155 0
131 2 155 15 155 13 0 15 -24 15 -155z m470 0 c0 -97 -4 -155 -10 -155 -6 0
-10 58 -10 155 0 97 4 155 10 155 6 0 10 -58 10 -155z m210 0 c0 -97 -4 -155
-10 -155 -6 0 -10 58 -10 155 0 97 4 155 10 155 6 0 10 -58 10 -155z m-580 5
c0 -73 -4 -120 -10 -120 -6 0 -10 47 -10 120 0 73 4 120 10 120 6 0 10 -47 10
-120z m210 0 c0 -73 -4 -120 -10 -120 -6 0 -10 47 -10 120 0 73 4 120 10 120
6 0 10 -47 10 -120z m260 0 c0 -73 -4 -120 -10 -120 -6 0 -10 44 -10 113 0
100 4 127 17 127 2 0 3 -54 3 -120z m218 -5 c-2 -76 -7 -110 -15 -113 -10 -3
-13 24 -13 111 0 62 3 117 7 121 17 17 23 -19 21 -119z m-848 5 c0 -47 -4 -80
-10 -80 -11 0 -14 142 -3 153 12 13 13 7 13 -73z m480 -6 c0 -59 -3 -74 -15
-74 -12 0 -15 15 -15 73 0 41 3 77 6 80 16 16 24 -10 24 -79z m-270 -5 c0 -21
-4 -39 -10 -39 -5 0 -10 21 -10 46 0 27 4 43 10 39 6 -3 10 -24 10 -46z m210
6 c0 -25 -4 -45 -10 -45 -5 0 -10 20 -10 45 0 25 5 45 10 45 6 0 10 -20 10
-45z m270 -6 c0 -28 -4 -39 -15 -39 -11 0 -15 11 -15 38 0 21 3 42 6 45 14 13
24 -6 24 -44z m210 1 c0 -29 -4 -40 -15 -40 -11 0 -15 11 -15 40 0 29 4 40 15
40 11 0 15 -11 15 -40z"/>
<path d="M3540 415 l0 -385 83 0 82 0 105 105 c58 58 109 105 115 105 6 0 57
-47 115 -105 l105 -105 82 0 83 0 0 385 0 385 -145 0 -145 0 0 -192 0 -192
-43 42 c-23 23 -47 42 -52 42 -5 0 -29 -19 -52 -42 l-43 -42 0 192 0 192 -145
0 -145 0 0 -385z"/>
</g>
</svg>
